<svg width="23" height="24" viewBox="0 0 23 24" fill="none" xmlns="http://www.w3.org/2000/svg">
<path d="M1.43941 20.5959C1.43941 20.0245 1.86821 19.8456 2.03963 19.7662L8.35205 16.7873C8.80451 16.5796 9.1168 16.1512 9.17754 15.6571C9.23863 15.1629 9.03918 14.6724 8.65069 14.3608C7.15749 13.162 6.46174 10.527 6.46174 9.12327V5.53168C6.46174 4.02985 9.07619 1.94116 11.4959 1.94116C13.9367 1.94116 16.5253 3.99715 16.5253 5.53168V9.12363C16.5253 10.5061 15.9503 13.1511 14.4082 14.3651C14.2148 14.5173 14.0638 14.7167 13.9695 14.944C13.8752 15.1714 13.8409 15.4191 13.8699 15.6635C13.9288 16.1613 14.2426 16.5914 14.6975 16.8006L16.852 17.8226L17.2071 16.388L15.2977 15.4946C17.289 13.9274 17.9628 10.849 17.9628 9.12361V5.53163C17.9628 3.15257 14.6695 0.503662 11.4959 0.503662C8.32187 0.503662 5.0242 3.15262 5.0242 5.53163V9.12359C5.0242 10.693 5.74043 13.8684 7.7508 15.482L1.43837 18.4609C1.43837 18.4609 0.00195312 19.1009 0.00195312 19.8976V22.0546C0.00195312 22.8485 0.645234 23.4914 1.43833 23.4914H17.249V22.0539L1.43943 22.0546L1.43941 20.5959ZM22.2804 19.1851H20.1241V17.0288C20.1241 16.6317 19.8021 16.3101 19.4054 16.3101C19.0086 16.3101 18.6866 16.6317 18.6866 17.0288V19.1851H16.5304C16.1336 19.1851 15.8116 19.5067 15.8116 19.9038C15.8116 20.3006 16.1336 20.6226 16.5304 20.6226H18.6866V22.7788C18.6866 23.1756 19.0086 23.4976 19.4054 23.4976C19.8021 23.4976 20.1241 23.1756 20.1241 22.7788V20.6226H22.2804C22.6771 20.6226 22.9991 20.3006 22.9991 19.9038C22.9991 19.5067 22.6775 19.1851 22.2804 19.1851Z" fill="black"/>
</svg>
